<?xml version="1.0" encoding="UTF-8" standalone="no"?>
<!-- Created with Inkscape (http://www.inkscape.org/) -->

<svg
   xmlns:dc="http://purl.org/dc/elements/1.1/"
   xmlns:cc="http://creativecommons.org/ns#"
   xmlns:rdf="http://www.w3.org/1999/02/22-rdf-syntax-ns#"
   xmlns:svg="http://www.w3.org/2000/svg"
   xmlns="http://www.w3.org/2000/svg"
   xmlns:sodipodi="http://sodipodi.sourceforge.net/DTD/sodipodi-0.dtd"
   xmlns:inkscape="http://www.inkscape.org/namespaces/inkscape"
   id="svg2"
   version="1.1"
   inkscape:version="0.91 r13725"
   xml:space="preserve"
   width="1250"
   height="1250"
   viewBox="0 0 1250 1250"
   sodipodi:docname="spiral starburst.svg"><metadata
     id="metadata8"><rdf:RDF><cc:Work
         rdf:about=""><dc:format>image/svg+xml</dc:format><dc:type
           rdf:resource="http://purl.org/dc/dcmitype/StillImage" /><dc:title></dc:title></cc:Work></rdf:RDF></metadata><defs
     id="defs6"><clipPath
       clipPathUnits="userSpaceOnUse"
       id="clipPath16"><path
         d="m 0,1000 1000,0 L 1000,0 0,0 0,1000 Z"
         id="path18"
         inkscape:connector-curvature="0" /></clipPath><clipPath
       clipPathUnits="userSpaceOnUse"
       id="clipPath24"><path
         d="m -0.5,999.5 1000,0 0,-1000 -1000,0 0,1000 z"
         id="path26"
         inkscape:connector-curvature="0" /></clipPath></defs><sodipodi:namedview
     pagecolor="#ffffff"
     bordercolor="#666666"
     borderopacity="1"
     objecttolerance="10"
     gridtolerance="10"
     guidetolerance="10"
     inkscape:pageopacity="0"
     inkscape:pageshadow="2"
     inkscape:window-width="640"
     inkscape:window-height="480"
     id="namedview4"
     showgrid="false"
     inkscape:zoom="0.68906667"
     inkscape:cx="620.40441"
     inkscape:cy="554.37307"
     inkscape:current-layer="g10" /><g
     id="g10"
     inkscape:groupmode="layer"
     inkscape:label="spiral starburst"
     transform="matrix(1.25,0,0,-1.25,0,1250)"><g
       id="g12"><g
         id="g14"
         clip-path="url(#clipPath16)"><g
           id="g20"><g
             id="g22" /><g
             id="g28"><g
               clip-path="url(#clipPath24)"
               id="g30"><g
                 transform="translate(327.05,694)"
                 id="g32"><path
                   d="M 0,0 C 84.66,-28.86 151.97,-103.88 171.48,-191.15 137.11,-108.6 57.82,-46.4 -30.55,-32.69 c -40.51,6.29 -81.81,3.02 -122.7,0.08 -40.89,-2.94 -82.58,-5.5 -122.86,2.16 -17.59,3.35 -34.44,8.88 -51.44,16.8 l 0,124.09 c 20,-30.73 51.9,-52.63 86.18,-65.64 10.78,-4.09 21.81,-7.4 33,-10.14 28.56,-7 58.18,-10.26 87.48,-13.28 C -80.11,17.17 -38.8,13.22 0,0"
                   style="fill:#000000;fill-opacity:1;fill-rule:nonzero;stroke:none"
                   id="path34"
                   inkscape:connector-curvature="0" /></g><g
                 transform="translate(498.56,502.73)"
                 id="g36"><path
                   d="M 0,0 C -60.54,65.87 -156.35,97.24 -244.12,79.9 -284.34,71.95 -322.04,54.75 -359.45,38 -396.87,21.25 -435.19,4.67 -475.65,-1.9 c -7.63,-1.24 -15.41,-2.09 -23.41,-2.5 l 0,87.61 c 10,-1.57 20.3,-2.39 30.31,-2.52 40.99,-0.56 81.6,9.16 121.36,19.16 39.76,9.99 79.87,20.39 120.86,21.23 C -137.09,122.92 -48.19,75.4 -0.01,0.03 0,0.02 0,0.01 0,0"
                   style="fill:#000000;fill-opacity:1;fill-rule:nonzero;stroke:none"
                   id="path38"
                   inkscape:connector-curvature="0" /></g><g
                 transform="translate(244.26,539.01)"
                 id="g40"><path
                   d="m 0,0 c 83.43,32.32 183.24,18.08 254.3,-36.29 0,0 0,-0.01 0.01,-0.01 C 174.88,4.91 74.12,1.6 -2.44,-44.71 c -35.07,-21.23 -64.61,-50.28 -94.05,-78.82 -29.43,-28.53 -59.78,-57.13 -95.56,-77.15 -16.36,-9.15 -33.71,-16.38 -52.71,-20.62 l 0,92.37 c 11,1.96 20.99,4.75 30.95,8.22 38.71,13.5 73.57,36.43 107.51,59.43 C -72.36,-38.29 -38.22,-14.81 0,0"
                   style="fill:#000000;fill-opacity:1;fill-rule:nonzero;stroke:none"
                   id="path42"
                   inkscape:connector-curvature="0" /></g><g
                 transform="translate(494.6,503.18)"
                 id="g44"><path
                   d="m 0,0 c -37.45,4.25 -75.65,-0.17 -111.43,-12 -47.87,-15.82 -91.4,-44.9 -123.03,-84.2 -25.7,-31.94 -43.55,-69.35 -61.44,-106.23 -17.9,-36.88 -36.47,-74.05 -63.24,-105.09 -20.92,-24.26 -47.74,-44.67 -77.89,-54.65 -8.45,-2.8 -17.16,-4.77 -26.07,-5.79 -10.54,-1.2 -21,-1.05 -32,-0.58 l 0,88.18 c 33,4.29 62.78,19.92 88.03,40.54 12.9,10.53 24.68,22.29 35.72,34.78 16.15,18.24 30.73,38.03 45,57.75 2.25,3.11 4.5,6.23 6.76,9.35 0.75,1.04 1.51,2.08 2.26,3.12 6.04,8.3 12.13,16.58 18.37,24.73 3.91,5.09 7.88,10.13 11.93,15.08 3.25,3.97 6.55,7.89 9.92,11.73 2.53,2.89 5.1,5.74 7.71,8.54 1.75,1.87 3.51,3.72 5.29,5.55 0.9,0.92 1.79,1.82 2.7,2.73 4.51,4.52 9.17,8.9 13.99,13.12 21.67,18.95 46.57,33.95 73.23,44.69 1.84,0.74 3.68,1.46 5.53,2.16 53.36,20.13 113.22,23.42 168,7.41 C 0.11,0.69 0.88,0.46 1.65,0.23 l 0.02,0 C 2.43,-0.01 3.19,-0.24 3.95,-0.48 2.63,-0.31 1.31,-0.15 0,0"
                   style="fill:#000000;fill-opacity:1;fill-rule:nonzero;stroke:none"
                   id="path46"
                   inkscape:connector-curvature="0" /></g><g
                 transform="translate(498.43,502.65)"
                 id="g48"><path
                   d="m 0,0 c -87.28,-19.52 -162.29,-86.8 -191.14,-171.44 -13.23,-38.81 -17.18,-80.05 -21.38,-120.83 -2.89,-28.04 -6.01,-56.42 -12.4,-83.88 -2.9,-12.47 -6.48,-24.76 -11.03,-36.74 -13.96,-36.79 -38.17,-71.26 -72.54,-90.26 l -190.44,0 0,36.32 c 8,4.69 16.87,8.21 25.56,10.48 25.35,6.62 52.48,5.99 77.6,13.43 39.3,11.65 70.77,42.33 91.75,77.55 20.98,35.22 32.75,75.04 43.97,114.46 7.71,27.11 15.35,54.46 25.79,80.58 0.95,2.37 1.92,4.73 2.92,7.08 0.5,1.18 1.01,2.36 1.52,3.53 1.02,2.34 2.07,4.66 3.15,6.98 l 0,0.01 c 1.08,2.31 2.19,4.61 3.32,6.9 1.71,3.43 3.49,6.83 5.34,10.2 11.46,20.82 25.92,39.87 42.64,56.7 C -129.15,-32.46 -65.59,-2.99 0,0"
                   style="fill:#000000;fill-opacity:1;fill-rule:nonzero;stroke:none"
                   id="path50"
                   inkscape:connector-curvature="0" /></g><g
                 transform="translate(498.53,502.64)"
                 id="g52"><path
                   d="m 0,0 c -75.38,-48.18 -122.89,-137.08 -121.05,-226.52 0.84,-40.99 11.23,-81.1 21.23,-120.86 9.99,-39.76 19.71,-80.37 19.16,-121.36 -0.16,-11.38 -1.19,-22.4 -3.2,-34.4 l -95.81,0 c 9.03,18 15.24,36.44 18.87,55.53 7.67,40.28 5.11,81.97 2.17,122.86 -2.94,40.89 -6.22,82.19 0.07,122.7 13.72,88.37 75.91,167.65 158.47,202.03 C -0.06,-0.01 -0.03,0 0,0"
                   style="fill:#000000;fill-opacity:1;fill-rule:nonzero;stroke:none"
                   id="path54"
                   inkscape:connector-curvature="0" /></g><g
                 transform="translate(462.27,248.35)"
                 id="g56"><path
                   d="m 0,0 c 14.81,-38.22 38.3,-72.36 61.29,-106.3 22.99,-33.94 45.93,-68.8 59.42,-107.51 3.93,-11.26 6.98,-23.04 8.95,-35.04 l -88.81,0 c -0.3,10 -1.21,18.53 -2.67,27.5 -6.57,40.46 -23.15,78.78 -39.89,116.19 -16.75,37.42 -33.96,75.12 -41.9,115.34 -17.35,87.77 14.02,183.58 79.9,244.12 l 0.01,0 0,-0.01 C -18.08,183.23 -32.31,83.43 0,0"
                   style="fill:#000000;fill-opacity:1;fill-rule:nonzero;stroke:none"
                   id="path58"
                   inkscape:connector-curvature="0" /></g><g
                 transform="translate(506.99,245.91)"
                 id="g60"><path
                   d="m 0,0 c -46.32,76.54 -49.62,177.3 -8.42,256.72 l 0,-0.02 c -0.23,-0.75 -0.46,-1.5 -0.69,-2.25 l 0,-0.02 c -0.18,-0.58 -0.35,-1.16 -0.52,-1.75 -0.06,-0.18 -0.12,-0.37 -0.17,-0.56 -15.17,-51.92 -13.02,-108.41 4.39,-159.59 0.64,-1.88 1.3,-3.75 1.98,-5.61 10.88,-29.8 26.98,-57.65 47.89,-81.56 1.69,-1.93 3.41,-3.84 5.14,-5.72 1.73,-1.87 3.49,-3.72 5.28,-5.55 0.9,-0.91 1.79,-1.82 2.7,-2.72 10.63,-10.64 22.04,-20.49 33.84,-29.89 0.46,-0.37 0.92,-0.73 1.37,-1.1 1.78,-1.42 3.57,-2.82 5.37,-4.2 2.03,-1.59 4.07,-3.15 6.11,-4.69 2.05,-1.56 4.1,-3.11 6.16,-4.63 2.06,-1.55 4.12,-3.08 6.19,-4.59 2.07,-1.53 4.14,-3.05 6.21,-4.55 5.19,-3.79 10.39,-7.55 15.58,-11.3 1.04,-0.75 2.08,-1.5 3.11,-2.25 2.08,-1.51 4.15,-3.02 6.23,-4.53 2.07,-1.52 4.14,-3.04 6.21,-4.57 3.1,-2.29 6.19,-4.6 9.27,-6.93 2.05,-1.55 4.1,-3.12 6.14,-4.69 2.03,-1.57 4.06,-3.16 6.08,-4.75 3.02,-2.4 6.03,-4.82 9,-7.27 3.96,-3.27 7.87,-6.6 11.71,-10 12.48,-11.04 24.24,-22.82 34.78,-35.72 21.49,-26.33 37.56,-58.12 41.02,-92.12 l -94.48,0 c -4.07,20 -11.68,39.22 -21.52,56.8 -20.01,35.78 -48.61,66.13 -77.15,95.56 C 50.28,-64.61 21.22,-35.08 0,0"
                   style="fill:#000000;fill-opacity:1;fill-rule:nonzero;stroke:none"
                   id="path62"
                   inkscape:connector-curvature="0" /></g><g
                 transform="translate(501.64,419.31)"
                 id="g64"><path
                   d="m 0,0 c -5.46,27.34 -6.66,55.5 -3.06,83.19 3.05,-66.98 33.75,-131.84 81.95,-178.27 4.02,-3.88 8.17,-7.63 12.43,-11.23 2.12,-1.8 4.28,-3.57 6.46,-5.3 1.1,-0.87 2.2,-1.73 3.31,-2.58 2.21,-1.7 4.45,-3.36 6.72,-4.98 7.94,-5.68 16.21,-10.91 24.79,-15.63 35.91,-19.77 75.85,-30.82 115.28,-42.04 39.43,-11.23 79.25,-22.99 114.48,-43.97 35.22,-20.98 65.9,-52.45 77.55,-91.76 7.44,-25.11 6.81,-52.25 13.43,-77.59 2.67,-10.23 7.08,-20.65 13.08,-29.65 l -101.61,0 c 0.6,12 0.97,24.2 -0.38,36.09 -1.09,9.55 -3.28,18.86 -6.4,27.88 -10.2,29.45 -30.27,55.7 -54.04,76.2 -31.05,26.78 -68.21,45.28 -105.1,63.18 -36.88,17.9 -74.29,35.71 -106.23,61.41 C 44.75,-116.49 12.03,-60.22 0,0"
                   style="fill:#000000;fill-opacity:1;fill-rule:nonzero;stroke:none"
                   id="path66"
                   inkscape:connector-curvature="0" /></g><g
                 transform="translate(670.08,311.38)"
                 id="g68"><path
                   d="m 0,0 c -84.68,28.86 -151.97,103.92 -171.46,191.24 0.01,-0.02 0.02,-0.04 0.04,-0.06 34.36,-82.58 113.65,-144.78 202.03,-158.5 40.51,-6.29 81.82,-3.01 122.71,-0.07 40.89,2.94 82.08,5.5 122.35,-2.17 18.63,-3.55 37.75,-9.54 53.75,-18.21 l 0,-127.28 c -19,33.15 -52.51,56.6 -88.48,70.24 -10.79,4.09 -21.78,7.41 -32.93,10.14 -28.46,7 -57.88,10.26 -87.18,13.29 C 80.05,-17.18 38.8,-13.23 0,0"
                   style="fill:#000000;fill-opacity:1;fill-rule:nonzero;stroke:none"
                   id="path70"
                   inkscape:connector-curvature="0" /></g><g
                 transform="translate(639.41,394.71)"
                 id="g72"><path
                   d="M 0,0 C -57.21,18.89 -108.24,57.04 -140.74,107.87 -97.46,60.8 -36.18,31.36 27.32,24.75 c 1.13,-0.13 2.27,-0.24 3.41,-0.33 16.06,-1.47 32.25,-1.47 48.31,0.07 8.15,0.78 16.26,1.96 24.31,3.55 40.22,7.94 77.91,25.15 115.33,41.9 26.89,12.03 53.98,23.98 82.11,32.19 11.03,3.21 22.21,5.85 33.59,7.7 8.55,1.39 17.71,2.28 25.71,2.62 l 0,-88.19 c -10,1.87 -21.66,2.84 -32.61,2.99 -40.99,0.55 -81.11,-9.17 -120.87,-19.16 -39.76,-10 -79.86,-20.39 -120.85,-21.24 -20.88,-0.43 -41.73,1.83 -62.04,6.51 -2.66,0.62 -5.31,1.27 -7.96,1.97 -2.65,0.69 -5.3,1.43 -7.93,2.21 C 5.21,-1.68 2.6,-0.86 0,0"
                   style="fill:#000000;fill-opacity:1;fill-rule:nonzero;stroke:none"
                   id="path74"
                   inkscape:connector-curvature="0" /></g><g
                 transform="translate(752.93,466.36)"
                 id="g76"><path
                   d="m 0,0 c -83.43,-32.32 -183.22,-18.08 -254.28,36.3 l 0.02,0 C -174.85,-4.9 -74.1,-1.6 2.45,44.72 37.52,65.94 67.06,95 96.49,123.53 c 29.44,28.54 59.28,57.14 95.06,77.15 17.2,9.62 36.02,17.11 55.02,21.25 l 0,-92.48 c -11,-1.97 -22.41,-4.95 -33.26,-8.74 C 174.6,107.22 140.25,84.28 106.3,61.29 72.36,38.3 38.23,14.81 0,0"
                   style="fill:#000000;fill-opacity:1;fill-rule:nonzero;stroke:none"
                   id="path78"
                   inkscape:connector-curvature="0" /></g><g
                 transform="translate(500.91,501.97)"
                 id="g80"><path
                   d="m 0,0 c -0.75,0.23 -1.49,0.46 -2.23,0.69 0.03,0 0.05,0.01 0.08,0.01 l 0.01,0 c 28.91,-3.75 58.34,-2.29 86.82,3.81 2.39,0.51 4.78,1.06 7.16,1.64 2.4,0.57 4.78,1.18 7.16,1.83 2.37,0.65 4.73,1.32 7.07,2.03 l 0.02,0 c 50.61,15.23 96.86,45.21 130.02,86.41 25.7,31.94 43.52,69.35 61.42,106.23 17.9,36.88 36.4,74.05 63.17,105.1 20.92,24.25 47.51,44.66 77.55,54.65 8.43,2.79 17.12,4.77 26.03,5.79 11.47,1.3 23.31,1.01 34.31,0.45 l 0,-87.71 c -33,-3.72 -64.34,-19.67 -90.34,-40.89 -20.84,-17.01 -38.52,-37.24 -55.01,-58.52 -1.57,-2.03 -3.13,-4.06 -4.68,-6.11 -2.32,-3.06 -4.63,-6.15 -6.92,-9.24 -1.53,-2.06 -3.05,-4.13 -4.56,-6.2 -0.76,-1.04 -1.51,-2.07 -2.27,-3.11 -1.51,-2.07 -3.02,-4.15 -4.52,-6.23 -0.76,-1.03 -1.51,-2.07 -2.26,-3.11 -10.52,-14.53 -21.03,-29.17 -32.11,-43.29 -1.59,-2.02 -3.18,-4.02 -4.79,-6.02 -1.61,-2 -3.23,-3.98 -4.87,-5.95 -1.64,-1.97 -3.29,-3.92 -4.96,-5.86 -1.67,-1.94 -3.36,-3.86 -5.06,-5.77 -0.85,-0.95 -1.7,-1.9 -2.57,-2.84 -3.45,-3.78 -6.97,-7.48 -10.58,-11.1 -4.51,-4.53 -9.16,-8.91 -13.98,-13.12 C 227.44,34.62 202.53,19.62 175.87,8.88 174.03,8.14 172.19,7.42 170.34,6.72 116.22,-13.71 55.41,-16.79 0,0"
                   style="fill:#000000;fill-opacity:1;fill-rule:nonzero;stroke:none"
                   id="path82"
                   inkscape:connector-curvature="0" /></g><g
                 transform="translate(693.59,603.51)"
                 id="g84"><path
                   d="m 0,0 c -46.78,-58.97 -119.45,-97.38 -194.82,-100.81 87.27,19.52 162.28,86.76 191.14,171.4 13.23,38.81 17.17,79.99 21.38,120.77 3.16,30.59 6.57,61.37 14.22,91.01 2.55,9.89 5.57,19.65 9.2,29.23 12.72,33.53 33.96,65.39 63.63,84.39 l 201.16,0 0,-28.2 c -8,-5.57 -18.12,-9.69 -27.87,-12.23 -25.34,-6.62 -51.97,-5.99 -77.09,-13.43 C 161.64,330.48 130.17,299.8 109.19,264.58 88.22,229.35 76.45,189.53 65.23,150.1 57.51,122.99 49.87,95.64 39.43,69.53 38.48,67.16 37.51,64.8 36.51,62.45 36.02,61.27 35.51,60.09 35,58.92 33.97,56.58 32.92,54.26 31.85,51.94 l 0,-0.01 c -1.08,-2.31 -2.19,-4.61 -3.33,-6.9 -1.7,-3.43 -3.48,-6.84 -5.33,-10.21 -2.7,-4.9 -5.56,-9.7 -8.58,-14.4 -1.51,-2.34 -3.06,-4.66 -4.65,-6.96 0,0 0.01,-0.01 0,-0.01 C 7.58,10.01 5.12,6.63 2.57,3.31 1.73,2.2 0.87,1.1 0,0"
                   style="fill:#000000;fill-opacity:1;fill-rule:nonzero;stroke:none"
                   id="path86"
                   inkscape:connector-curvature="0" /></g><g
                 transform="translate(657.22,704.78)"
                 id="g88"><path
                   d="m 0,0 c -13.72,-88.43 -75.98,-167.74 -158.61,-202.08 75.41,48.17 122.95,137.09 121.11,226.56 -0.84,40.98 -11.24,81.09 -21.23,120.85 -10,39.76 -19.72,79.88 -19.16,120.87 0.13,9.58 0.89,19.52 2.32,28.52 l 93.99,0 C 10.84,279.72 5.51,262.19 2.24,245.06 -5.42,204.79 -2.86,163.6 0.08,122.71 3.02,81.82 6.29,40.51 0,0"
                   style="fill:#000000;fill-opacity:1;fill-rule:nonzero;stroke:none"
                   id="path90"
                   inkscape:connector-curvature="0" /></g><g
                 transform="translate(578.54,746.85)"
                 id="g92"><path
                   d="m 0,0 c 17.34,-87.79 -14.03,-183.62 -79.93,-244.15 0,0.01 0.01,0.01 0.01,0.02 54.37,71.06 68.63,170.86 36.3,254.3 -14.8,38.23 -38.29,72.36 -61.28,106.3 -22.99,33.95 -45.93,68.3 -59.43,107.01 -3.33,9.55 -6.03,19.17 -7.98,29.17 l 88.09,0 c 0.44,-7 1.25,-14.41 2.42,-21.62 6.57,-40.47 23.15,-78.28 39.9,-115.7 C -25.15,77.91 -7.95,40.22 0,0"
                   style="fill:#000000;fill-opacity:1;fill-rule:nonzero;stroke:none"
                   id="path94"
                   inkscape:connector-curvature="0" /></g><g
                 transform="translate(490.21,759.46)"
                 id="g96"><path
                   d="m 0,0 c 46.31,-76.55 49.62,-177.32 8.41,-256.74 l 0,0.03 c 0,0.01 0,0.01 0.01,0.02 0.23,0.74 0.46,1.48 0.69,2.23 l 0,0.02 c 0.24,0.77 0.47,1.54 0.69,2.31 17.12,58.59 12.18,122.99 -11.86,179.04 -0.77,1.82 -1.57,3.63 -2.4,5.43 l 0,0.01 c -0.82,1.8 -1.66,3.59 -2.52,5.37 -9.9,20.52 -22.45,39.74 -37.48,56.93 -4.21,4.82 -8.59,9.47 -13.12,13.98 -0.89,0.91 -1.81,1.81 -2.72,2.7 -1.83,1.79 -3.68,3.55 -5.55,5.29 -2.81,2.61 -5.66,5.18 -8.54,7.71 -0.96,0.84 -1.93,1.68 -2.9,2.51 -1.94,1.67 -3.89,3.33 -5.86,4.96 -13.79,11.47 -28.26,22.19 -42.8,32.75 -4.15,3.02 -8.31,6.03 -12.46,9.03 -19.72,14.27 -39.51,28.67 -57.75,44.67 -0.96,0.84 -1.92,1.69 -2.87,2.54 -1.9,1.7 -3.79,3.42 -5.65,5.16 -9.33,8.7 -18.16,17.91 -26.26,27.84 -20.34,24.92 -35.84,55.25 -40.37,86.25 l 95.03,0 c 4.27,-17 11.37,-34.95 20.31,-50.93 20.02,-35.78 48.62,-65.63 77.15,-95.06 C -50.28,64.62 -21.22,35.08 0,0"
                   style="fill:#000000;fill-opacity:1;fill-rule:nonzero;stroke:none"
                   id="path98"
                   inkscape:connector-curvature="0" /></g><g
                 transform="translate(498.6,502.73)"
                 id="g100"><path
                   d="m 0,0 c -2.96,65.64 -32.46,129.25 -78.97,175.49 -16.83,16.73 -35.87,31.19 -56.7,42.65 -35.92,19.76 -75.85,30.81 -115.27,42.04 -39.43,11.22 -79.25,22.98 -114.47,43.96 -22.56,13.44 -43.26,31.19 -58.29,52.54 -1.1,1.56 -2.16,3.15 -3.2,4.75 -0.35,0.53 -0.69,1.07 -1.03,1.6 -0.67,1.08 -1.34,2.16 -1.99,3.26 -0.32,0.54 -0.64,1.09 -0.96,1.64 -5.06,8.81 -9.16,18.14 -12.07,27.97 -0.23,0.78 -0.46,1.57 -0.68,2.36 -5,18.11 -6.07,36.97 -8.91,55.53 -0.25,1.61 -0.51,3.22 -0.79,4.83 -0.14,0.8 -0.28,1.61 -0.43,2.41 -0.73,4.01 -1.59,8 -2.62,11.96 -0.14,0.52 -0.27,1.03 -0.42,1.55 -0.28,1.03 -0.59,2.07 -0.91,3.1 -0.48,1.56 -1,3.11 -1.56,4.65 -1.87,5.12 -4.16,10.1 -6.86,14.48 l 98.03,0 c -0.43,-10 -0.52,-20.1 0.63,-30.22 1.01,-8.91 2.99,-17.6 5.79,-26.01 9.97,-30.09 30.39,-56.77 54.65,-77.69 31.04,-26.78 68.21,-45.22 105.09,-63.12 36.88,-17.89 74.29,-35.68 106.23,-61.38 44.08,-35.47 75.31,-85.92 89.39,-140.65 l 0,-0.02 c 0.61,-2.37 1.19,-4.76 1.74,-7.14 C 1.59,63.5 3.59,35.56 0.91,7.95 0.79,6.76 0.67,5.57 0.53,4.37 0.37,2.92 0.2,1.46 0.01,0.01 L 0,0 Z"
                   style="fill:#000000;fill-opacity:1;fill-rule:nonzero;stroke:none"
                   id="path102"
                   inkscape:connector-curvature="0" /></g></g></g></g></g></g></g></svg>